<mxfile host="app.diagrams.net" modified="2023-04-20T07:17:20.086Z" agent="Mozilla/5.0 (Macintosh; Intel Mac OS X 10_15_7) AppleWebKit/537.36 (KHTML, like Gecko) Chrome/112.0.0.0 Safari/537.36" version="21.1.4" etag="GBULKj9C4tEp0OUN8-jH" type="github">
  <diagram name="페이지-1" id="gxklzMOEhJ284HbPfKui">
    <mxGraphModel>
      <root>
        <mxCell id="0" />
        <mxCell id="1" parent="0" />
      </root>
    </mxGraphModel>
  </diagram>
</mxfile>
